<?xml version="1.0"?>
<svg version="1.1" xmlns="http://www.w3.org/2000/svg" style="" viewBox="17.7 32.7 276.53 30"><path fill="#000000" d="M22.236328125,43.5791015625l1.46484375,0q2.1533203125,0,3.1787109375-0.7177734375t1.025390625-2.255859375q0-1.5234375-1.04736328125-2.16796875t-3.24462890625-0.64453125l-1.376953125,0l0,5.7861328125z M22.236328125,47.2705078125l0,8.2177734375l-4.541015625,0l0-21.416015625l6.240234375,0q4.365234375,0,6.4599609375,1.58935546875t2.0947265625,4.82666015625q0,1.8896484375-1.0400390625,3.36181640625t-2.9443359375,2.30712890625q4.833984375,7.2216796875,6.298828125,9.3310546875l-5.0390625,0l-5.1123046875-8.2177734375l-2.4169921875,0z M45.992724609375,41.982421875q-1.4208984375,0-2.2265625,0.90087890625t-0.9228515625,2.55615234375l6.26953125,0q-0.029296875-1.6552734375-0.8642578125-2.55615234375t-2.255859375-0.90087890625z M46.622607421875,55.78125q-3.955078125,0-6.181640625-2.1826171875t-2.2265625-6.181640625q0-4.1162109375,2.05810546875-6.36474609375t5.69091796875-2.24853515625q3.4716796875,0,5.4052734375,1.9775390625t1.93359375,5.4638671875l0,2.16796875l-10.5615234375,0q0.0732421875,1.904296875,1.1279296875,2.9736328125t2.958984375,1.0693359375q1.4794921875,0,2.7978515625-0.3076171875t2.75390625-0.9814453125l0,3.45703125q-1.171875,0.5859375-2.5048828125,0.87158203125t-3.251953125,0.28564453125z M63.46494140625,55.48828125l-4.4677734375,0l0-22.79296875l4.4677734375,0l0,22.79296875z M80.614892578125,55.48828125l-0.8642578125-2.2265625l-0.1171875,0q-1.1279296875,1.4208984375-2.32177734375,1.97021484375t-3.11279296875,0.54931640625q-2.3583984375,0-3.71337890625-1.34765625t-1.35498046875-3.837890625q0-2.607421875,1.82373046875-3.84521484375t5.50048828125-1.36962890625l2.841796875-0.087890625l0-0.7177734375q0-2.490234375-2.548828125-2.490234375q-1.962890625,0-4.6142578125,1.1865234375l-1.4794921875-3.017578125q2.8271484375-1.4794921875,6.26953125-1.4794921875q3.2958984375,0,5.0537109375,1.435546875t1.7578125,4.365234375l0,10.9130859375l-3.1201171875,0z M79.296533203125,47.900390625l-1.728515625,0.05859375q-1.9482421875,0.05859375-2.900390625,0.703125t-0.9521484375,1.962890625q0,1.8896484375,2.16796875,1.8896484375q1.552734375,0,2.48291015625-0.8935546875t0.93017578125-2.373046875l0-1.34765625z M97.29609375,52.2216796875q1.171875,0,2.8125-0.5126953125l0,3.3251953125q-1.669921875,0.7470703125-4.1015625,0.7470703125q-2.6806640625,0-3.90380859375-1.35498046875t-1.22314453125-4.06494140625l0-7.8955078125l-2.138671875,0l0-1.8896484375l2.4609375-1.494140625l1.2890625-3.45703125l2.8564453125,0l0,3.486328125l4.5849609375,0l0,3.3544921875l-4.5849609375,0l0,7.8955078125q0,0.9521484375,0.53466796875,1.40625t1.41357421875,0.4541015625z M105.29077148438,34.8779296875q0-2.1826171875,2.431640625-2.1826171875t2.431640625,2.1826171875q0,1.0400390625-0.60791015625,1.61865234375t-1.82373046875,0.57861328125q-2.431640625,0-2.431640625-2.197265625z M109.94897460938,55.48828125l-4.4677734375,0l0-16.376953125l4.4677734375,0l0,16.376953125z M120.25810546875,47.2705078125q0,2.431640625,0.79833984375,3.6767578125t2.60009765625,1.2451171875q1.787109375,0,2.57080078125-1.23779296875t0.78369140625-3.68408203125q0-2.431640625-0.791015625-3.6474609375t-2.5927734375-1.2158203125q-1.787109375,0-2.578125,1.20849609375t-0.791015625,3.65478515625z M131.58134765625,47.2705078125q0,3.9990234375-2.109375,6.2548828125t-5.8740234375,2.255859375q-2.3583984375,0-4.16015625-1.03271484375t-2.7685546875-2.96630859375t-0.966796875-4.51171875q0-4.013671875,2.0947265625-6.240234375t5.888671875-2.2265625q2.3583984375,0,4.16015625,1.025390625t2.7685546875,2.9443359375t0.966796875,4.4970703125z M152.45200195313,55.48828125l-4.4677734375,0l0-9.5654296875q0-1.7724609375-0.6298828125-2.65869140625t-2.0068359375-0.88623046875q-1.875,0-2.7099609375,1.25244140625t-0.8349609375,4.15283203125l0,7.705078125l-4.4677734375,0l0-16.376953125l3.4130859375,0l0.6005859375,2.0947265625l0.2490234375,0q0.7470703125-1.1865234375,2.05810546875-1.79443359375t2.98095703125-0.60791015625q2.8564453125,0,4.3359375,1.54541015625t1.4794921875,4.46044921875l0,10.6787109375z M170.539453125,50.625q0,2.51953125-1.75048828125,3.837890625t-5.23681640625,1.318359375q-1.787109375,0-3.046875-0.24169921875t-2.3583984375-0.71044921875l0-3.69140625q1.2451171875,0.5859375,2.80517578125,0.9814453125t2.74658203125,0.3955078125q2.431640625,0,2.431640625-1.40625q0-0.52734375-0.322265625-0.85693359375t-1.11328125-0.7470703125t-2.109375-0.97412109375q-1.8896484375-0.791015625-2.77587890625-1.46484375t-1.2890625-1.54541015625t-0.40283203125-2.14599609375q0-2.1826171875,1.69189453125-3.37646484375t4.79736328125-1.19384765625q2.958984375,0,5.7568359375,1.2890625l-1.34765625,3.22265625q-1.23046875-0.52734375-2.2998046875-0.8642578125t-2.1826171875-0.3369140625q-1.9775390625,0-1.9775390625,1.0693359375q0,0.6005859375,0.63720703125,1.0400390625t2.79052734375,1.3037109375q1.9189453125,0.7763671875,2.8125,1.4501953125t1.318359375,1.552734375t0.4248046875,2.0947265625z M191.20502929687,55.48828125l-4.4677734375,0l0-9.5654296875q0-3.544921875-2.63671875-3.544921875q-1.875,0-2.7099609375,1.2744140625t-0.8349609375,4.130859375l0,7.705078125l-4.4677734375,0l0-22.79296875l4.4677734375,0l0,4.6435546875q0,0.5419921875-0.1025390625,2.548828125l-0.1025390625,1.318359375l0.234375,0q1.494140625-2.40234375,4.74609375-2.40234375q2.8857421875,0,4.3798828125,1.552734375t1.494140625,4.453125l0,10.6787109375z M197.67626953125,34.8779296875q0-2.1826171875,2.431640625-2.1826171875t2.431640625,2.1826171875q0,1.0400390625-0.60791015625,1.61865234375t-1.82373046875,0.57861328125q-2.431640625,0-2.431640625-2.197265625z M202.33447265625,55.48828125l-4.4677734375,0l0-16.376953125l4.4677734375,0l0,16.376953125z M218.07817382812,55.78125q-2.8857421875,0-4.5263671875-2.0947265625l-0.234375,0q0.234375,2.05078125,0.234375,2.373046875l0,6.6357421875l-4.4677734375,0l0-23.583984375l3.6328125,0l0.6298828125,2.1240234375l0.205078125,0q1.5673828125-2.431640625,4.6435546875-2.431640625q2.900390625,0,4.541015625,2.2412109375t1.640625,6.2255859375q0,2.6220703125-0.76904296875,4.5556640625t-2.18994140625,2.9443359375t-3.33984375,1.0107421875z M216.75981445312,42.3779296875q-1.6552734375,0-2.4169921875,1.01806640625t-0.791015625,3.36181640625l0,0.4833984375q0,2.63671875,0.78369140625,3.779296875t2.48291015625,1.142578125q3.0029296875,0,3.0029296875-4.951171875q0-2.4169921875-0.73974609375-3.62548828125t-2.32177734375-1.20849609375z"></path><path fill="#ed0000" d="M248.5923828125,55.48828125l-1.552734375-5.09765625l-7.8076171875,0l-1.552734375,5.09765625l-4.892578125,0l7.55859375-21.50390625l5.5517578125,0l7.587890625,21.50390625l-4.892578125,0z M245.9556640625,46.58203125q-2.1533203125-6.9287109375-2.42431640625-7.8369140625t-0.38818359375-1.435546875q-0.4833984375,1.875-2.7685546875,9.2724609375l5.5810546875,0z M266.88491210937,55.78125q-2.8857421875,0-4.5263671875-2.0947265625l-0.234375,0q0.234375,2.05078125,0.234375,2.373046875l0,6.6357421875l-4.4677734375,0l0-23.583984375l3.6328125,0l0.6298828125,2.1240234375l0.205078125,0q1.5673828125-2.431640625,4.6435546875-2.431640625q2.900390625,0,4.541015625,2.2412109375t1.640625,6.2255859375q0,2.6220703125-0.76904296875,4.5556640625t-2.18994140625,2.9443359375t-3.33984375,1.0107421875z M265.56655273437,42.3779296875q-1.6552734375,0-2.4169921875,1.01806640625t-0.791015625,3.36181640625l0,0.4833984375q0,2.63671875,0.78369140625,3.779296875t2.48291015625,1.142578125q3.0029296875,0,3.0029296875-4.951171875q0-2.4169921875-0.73974609375-3.62548828125t-2.32177734375-1.20849609375z M287.93134765625,55.78125q-2.8857421875,0-4.5263671875-2.0947265625l-0.234375,0q0.234375,2.05078125,0.234375,2.373046875l0,6.6357421875l-4.4677734375,0l0-23.583984375l3.6328125,0l0.6298828125,2.1240234375l0.205078125,0q1.5673828125-2.431640625,4.6435546875-2.431640625q2.900390625,0,4.541015625,2.2412109375t1.640625,6.2255859375q0,2.6220703125-0.76904296875,4.5556640625t-2.18994140625,2.9443359375t-3.33984375,1.0107421875z M286.61298828125,42.3779296875q-1.6552734375,0-2.4169921875,1.01806640625t-0.791015625,3.36181640625l0,0.4833984375q0,2.63671875,0.78369140625,3.779296875t2.48291015625,1.142578125q3.0029296875,0,3.0029296875-4.951171875q0-2.4169921875-0.73974609375-3.62548828125t-2.32177734375-1.20849609375z"></path></svg>